<svg xmlns="http://www.w3.org/2000/svg" viewBox="0 0 1496.8 291.36"><title>Ресурс 2</title><g id="Слой_2" data-name="Слой 2"><g id="Слой_1-2" data-name="Слой 1"><path d="M267.09.41,138.45,145l88.62,144.6H138L83.31,200.79,71.06,289.61H0L40,.41h71.06l-12.25,88Q119.25,66.11,139.06,44t39-43.59Z"/><path d="M473.32,228.05q-.82,7-1.84,13.43a49.78,49.78,0,0,1-3.67,12.4,62.84,62.84,0,0,1-7.35,12.18,65.83,65.83,0,0,1-12.87,12.4q-14.7,10.34-27.36,11.77a170.37,170.37,0,0,1-24.91,1c-1.63,0-3.2-.08-4.7-.21s-3.06-.21-4.69-.21q-7,0-14.09.21c-4.77.13-9.47.21-14.09.21H306.29c-5.45,0-10.69-.15-15.72-.42a145.88,145.88,0,0,1-15.32-1.65q-18-2.88-28.38-15.9t-8-32l24.5-173.94c.54-5,1.29-9.71,2.24-14.25a68.65,68.65,0,0,1,4.09-13,54.83,54.83,0,0,1,7.56-12.4,67,67,0,0,1,13.47-12.39q15.51-10.74,27.57-12.4a154,154,0,0,1,25.52-1.24H439a123.76,123.76,0,0,1,22.87,2.07Q479.44,7,489.86,20t8,31.6Zm-70.24-8.67L423.5,73.54H334.06L313.64,219.38Z"/><path d="M757.15.41,628.51,145l88.62,144.6h-89l-54.73-88.82-12.25,88.82H490.06l40-289.2h71.06l-12.25,88Q609.31,66.11,629.12,44t39-43.59Z"/><path d="M963.38,228.05c-.54,4.69-1.16,9.17-1.83,13.43a50.22,50.22,0,0,1-3.68,12.4,61.86,61.86,0,0,1-7.35,12.18,66,66,0,0,1-12.86,12.4q-14.71,10.34-27.37,11.77a170.37,170.37,0,0,1-24.91,1c-1.63,0-3.2-.08-4.7-.21s-3.06-.21-4.69-.21q-6.94,0-14.09.21c-4.77.13-9.46.21-14.09.21H796.35c-5.45,0-10.69-.15-15.72-.42a145.88,145.88,0,0,1-15.32-1.65q-18-2.88-28.38-15.9t-8-32l24.5-173.94c.54-5,1.29-9.71,2.25-14.25a68.63,68.63,0,0,1,4.08-13,54.83,54.83,0,0,1,7.56-12.4,67.26,67.26,0,0,1,13.47-12.39Q796.35,4.55,808.4,2.89a154.07,154.07,0,0,1,25.53-1.24h95.15A123.76,123.76,0,0,1,952,3.72Q969.5,7,979.93,20t8,31.6Zm-70.24-8.67L913.56,73.54H824.12L803.7,219.38Z"/><path d="M1237.82,78.5c-.55,3.3-1,6.61-1.23,9.91s-.68,6.48-1.22,9.5q-.42,4.14-.82,8.06c-.27,2.62-.55,5.17-.82,7.64q-1.21,9.11-2.85,18T1227.2,150a69.28,69.28,0,0,1-9.8,20.45q-6.12,8.47-17.15,15.49a41.57,41.57,0,0,1-13.07,6,75.73,75.73,0,0,1-12.66,1.87l39.2,95.43h-81.27l-39.2-95h-27.77l-13.07,95H980.94L1021.37,0H1197a48,48,0,0,1,19.81,3.93,39.66,39.66,0,0,1,14.7,11.15A45.29,45.29,0,0,1,1240.06,32a55.45,55.45,0,0,1,1.43,20.86Zm-78.41,43.79,6.94-50.4h-83.72l-6.94,50.4Z"/><path d="M1471.83,228.05q-.82,7-1.84,13.43a50.22,50.22,0,0,1-3.68,12.4,61.86,61.86,0,0,1-7.35,12.18,66,66,0,0,1-12.86,12.4q-14.71,10.34-27.37,11.77a170.37,170.37,0,0,1-24.91,1c-1.63,0-3.2-.08-4.7-.21s-3.06-.21-4.69-.21q-6.95,0-14.09.21c-4.77.13-9.46.21-14.09.21h-51.46c-5.45,0-10.68-.15-15.72-.42a145.41,145.41,0,0,1-15.31-1.65q-18-2.88-28.39-15.9t-8-32l24.5-173.94c.54-5,1.29-9.71,2.25-14.25a68.63,68.63,0,0,1,4.08-13,54.83,54.83,0,0,1,7.56-12.4,67.26,67.26,0,0,1,13.47-12.39q15.52-10.74,27.57-12.4a154.07,154.07,0,0,1,25.53-1.24h95.15a123.76,123.76,0,0,1,22.87,2.07q17.55,3.32,28,16.32t8,31.6Zm-70.25-8.67L1422,73.54h-89.44l-20.42,145.84Z"/></g></g></svg>